<?xml version="1.0" encoding="UTF-8" standalone="no"?>
<!DOCTYPE svg PUBLIC "-//W3C//DTD SVG 1.1//EN"
 "http://www.w3.org/Graphics/SVG/1.1/DTD/svg11.dtd">
<!-- Generated by graphviz version 2.40.1 (20161225.0304)
 -->
<!-- Title: G Pages: 1 -->
<svg width="1332pt" height="284pt"
 viewBox="0.00 0.00 1332.39 283.51" xmlns="http://www.w3.org/2000/svg" xmlns:xlink="http://www.w3.org/1999/xlink">
<g id="graph0" class="graph" transform="scale(1 1) rotate(0) translate(4 279.5097)">
<title>G</title>
<polygon fill="#ffffff" stroke="transparent" points="-4,4 -4,-279.5097 1328.3928,-279.5097 1328.3928,4 -4,4"/>
<!-- A0 -->
<g id="node1" class="node">
<title>A0</title>
<g transform="translate(216.621,-236.5097)" style="fill:none;stroke:black;stroke-width:1px"><circle cx="0" cy="-20" r="7.5" />
                <line x1="0" y1="-12.5" x2="0" y2="5" />
                <line x1="-15" y1="-5" x2="15" y2="-5" />
                <line x1="0" y1="5" x2="-15" y2="17" />
                <line x1="0" y1="5" x2="15" y2="17" /></g>
<text text-anchor="middle" x="216.621" y="-211.5097" font-family="Helvetica,sans-Serif" font-size="10.00" fill="#000000">Usuario</text>
</g>
<!-- A1 -->
<g id="node2" class="node">
<title>A1</title>
<ellipse fill="none" stroke="#000000" cx="65.621" cy="-129.8823" rx="65.7422" ry="18"/>
<text text-anchor="middle" x="65.621" y="-126.8823" font-family="Helvetica,sans-Serif" font-size="10.00" fill="#000000">Ver lista de pizzas</text>
</g>
<!-- A0&#45;&gt;A1 -->
<g id="edge1" class="edge">
<title>A0&#45;&gt;A1</title>
<path fill="none" stroke="#000000" d="M170.0839,-205.7233C143.2208,-186.2205 110.5919,-162.5316 89.0271,-146.8753"/>
</g>
<!-- A2 -->
<g id="node3" class="node">
<title>A2</title>
<ellipse fill="none" stroke="#000000" cx="216.621" cy="-129.8823" rx="66.9063" ry="22.7556"/>
<text text-anchor="middle" x="216.621" y="-132.8823" font-family="Helvetica,sans-Serif" font-size="10.00" fill="#000000">Ver detalles de</text>
<text text-anchor="middle" x="216.621" y="-120.8823" font-family="Helvetica,sans-Serif" font-size="10.00" fill="#000000">pizza</text>
</g>
<!-- A0&#45;&gt;A2 -->
<g id="edge2" class="edge">
<title>A0&#45;&gt;A2</title>
<path fill="none" stroke="#000000" d="M216.621,-203.3097C216.621,-186.5953 216.621,-167.2606 216.621,-152.6283"/>
</g>
<!-- A3 -->
<g id="node4" class="node">
<title>A3</title>
<ellipse fill="none" stroke="#000000" cx="378.621" cy="-129.8823" rx="76.5334" ry="22.7556"/>
<text text-anchor="middle" x="378.621" y="-132.8823" font-family="Helvetica,sans-Serif" font-size="10.00" fill="#000000">Calcular precio de</text>
<text text-anchor="middle" x="378.621" y="-120.8823" font-family="Helvetica,sans-Serif" font-size="10.00" fill="#000000">pizza</text>
</g>
<!-- A0&#45;&gt;A3 -->
<g id="edge3" class="edge">
<title>A0&#45;&gt;A3</title>
<path fill="none" stroke="#000000" d="M263.4781,-207.8009C290.5777,-189.4623 323.9182,-166.9003 347.7359,-150.7826"/>
</g>
<!-- A4 -->
<g id="node5" class="node">
<title>A4</title>
<g transform="translate(814.621,-236.5097)" style="fill:none;stroke:black;stroke-width:1px"><circle cx="0" cy="-20" r="7.5" />
                <line x1="0" y1="-12.5" x2="0" y2="5" />
                <line x1="-15" y1="-5" x2="15" y2="-5" />
                <line x1="0" y1="5" x2="-15" y2="17" />
                <line x1="0" y1="5" x2="15" y2="17" /></g>
<text text-anchor="middle" x="814.621" y="-211.5097" font-family="Helvetica,sans-Serif" font-size="10.00" fill="#000000">Administrador</text>
</g>
<!-- A5 -->
<g id="node6" class="node">
<title>A5</title>
<ellipse fill="none" stroke="#000000" cx="520.621" cy="-129.8823" rx="47.645" ry="18"/>
<text text-anchor="middle" x="520.621" y="-126.8823" font-family="Helvetica,sans-Serif" font-size="10.00" fill="#000000">Crear pizza</text>
</g>
<!-- A4&#45;&gt;A5 -->
<g id="edge4" class="edge">
<title>A4&#45;&gt;A5</title>
<path fill="none" stroke="#000000" d="M754.0781,-230.5656C705.8062,-221.8192 637.4479,-205.7492 582.621,-178.5097 566.0822,-170.2927 549.745,-157.2192 537.9961,-146.6964"/>
</g>
<!-- A6 -->
<g id="node7" class="node">
<title>A6</title>
<ellipse fill="none" stroke="#000000" cx="558.621" cy="-22.6274" rx="85.3357" ry="22.7556"/>
<text text-anchor="middle" x="558.621" y="-25.6274" font-family="Helvetica,sans-Serif" font-size="10.00" fill="#000000">Añadir ingrediente a</text>
<text text-anchor="middle" x="558.621" y="-13.6274" font-family="Helvetica,sans-Serif" font-size="10.00" fill="#000000">pizza</text>
</g>
<!-- A4&#45;&gt;A6 -->
<g id="edge8" class="edge">
<title>A4&#45;&gt;A6</title>
<path fill="none" stroke="#000000" d="M754.4733,-226.2455C710.8541,-213.8262 653.1599,-191.2157 615.621,-152.5097 588.1976,-124.2336 598.8319,-106.1545 582.621,-70.2548 578.8866,-61.9849 574.4943,-53.0671 570.495,-45.2093"/>
</g>
<!-- A7 -->
<g id="node8" class="node">
<title>A7</title>
<ellipse fill="none" stroke="#000000" cx="683.621" cy="-129.8823" rx="58.8719" ry="18"/>
<text text-anchor="middle" x="683.621" y="-126.8823" font-family="Helvetica,sans-Serif" font-size="10.00" fill="#000000">Actualizar pizza</text>
</g>
<!-- A4&#45;&gt;A7 -->
<g id="edge6" class="edge">
<title>A4&#45;&gt;A7</title>
<path fill="none" stroke="#000000" d="M771.3636,-203.3097C748.7077,-184.3501 722.023,-162.019 704.0807,-147.004"/>
</g>
<!-- A8 -->
<g id="node9" class="node">
<title>A8</title>
<ellipse fill="none" stroke="#000000" cx="814.621" cy="-129.8823" rx="54.0041" ry="18"/>
<text text-anchor="middle" x="814.621" y="-126.8823" font-family="Helvetica,sans-Serif" font-size="10.00" fill="#000000">Eliminar pizza</text>
</g>
<!-- A4&#45;&gt;A8 -->
<g id="edge7" class="edge">
<title>A4&#45;&gt;A8</title>
<path fill="none" stroke="#000000" d="M814.621,-203.3097C814.621,-184.7243 814.621,-162.8991 814.621,-147.9015"/>
</g>
<!-- A9 -->
<g id="node10" class="node">
<title>A9</title>
<ellipse fill="none" stroke="#000000" cx="969.621" cy="-129.8823" rx="82.0303" ry="22.7556"/>
<text text-anchor="middle" x="969.621" y="-132.8823" font-family="Helvetica,sans-Serif" font-size="10.00" fill="#000000">Eliminar ingrediente</text>
<text text-anchor="middle" x="969.621" y="-120.8823" font-family="Helvetica,sans-Serif" font-size="10.00" fill="#000000">de pizza</text>
</g>
<!-- A4&#45;&gt;A9 -->
<g id="edge9" class="edge">
<title>A4&#45;&gt;A9</title>
<path fill="none" stroke="#000000" d="M865.8034,-203.3097C890.3173,-185.9716 918.8177,-165.8141 939.7483,-151.0104"/>
</g>
<!-- A10 -->
<g id="node11" class="node">
<title>A10</title>
<ellipse fill="none" stroke="#000000" cx="1133.621" cy="-129.8823" rx="63.0619" ry="18"/>
<text text-anchor="middle" x="1133.621" y="-126.8823" font-family="Helvetica,sans-Serif" font-size="10.00" fill="#000000">Crear ingrediente</text>
</g>
<!-- A4&#45;&gt;A10 -->
<g id="edge10" class="edge">
<title>A4&#45;&gt;A10</title>
<path fill="none" stroke="#000000" d="M874.9975,-218.7607C938.9397,-196.7863 1038.0949,-162.7107 1093.203,-143.7723"/>
</g>
<!-- A11 -->
<g id="node12" class="node">
<title>A11</title>
<ellipse fill="none" stroke="#000000" cx="1269.621" cy="-129.8823" rx="54.5445" ry="22.7556"/>
<text text-anchor="middle" x="1269.621" y="-132.8823" font-family="Helvetica,sans-Serif" font-size="10.00" fill="#000000">Actualizar</text>
<text text-anchor="middle" x="1269.621" y="-120.8823" font-family="Helvetica,sans-Serif" font-size="10.00" fill="#000000">ingrediente</text>
</g>
<!-- A4&#45;&gt;A11 -->
<g id="edge11" class="edge">
<title>A4&#45;&gt;A11</title>
<path fill="none" stroke="#000000" d="M874.8044,-228.4665C952.0719,-213.7541 1089.9783,-185.6867 1205.621,-152.5097 1213.2108,-150.3322 1221.2117,-147.7446 1228.8885,-145.1107"/>
</g>
<!-- A5&#45;&gt;A6 -->
<g id="edge5" class="edge">
<title>A5&#45;&gt;A6</title>
<path fill="none" stroke="#000000" stroke-dasharray="5,2" d="M522.3188,-101.6778C523.545,-91.5474 525.648,-80.1793 529.25,-70.2548 532.4317,-61.4884 537.3574,-52.5992 542.2717,-44.9121"/>
<polygon fill="#000000" stroke="#000000" points="521.3324,-111.6744 517.8362,-101.2808 521.8234,-106.6986 522.3145,-101.7227 522.3145,-101.7227 522.3145,-101.7227 521.8234,-106.6986 526.7927,-102.1647 521.3324,-111.6744 521.3324,-111.6744"/>
<text text-anchor="middle" x="556.3065" y="-73.2548" font-family="Helvetica,sans-Serif" font-size="10.00" fill="#000000">&lt;&lt;extend&gt;&gt;</text>
</g>
</g>
</svg>
