<?xml version="1.0" encoding="UTF-8" standalone="no"?>
<!DOCTYPE svg PUBLIC "-//W3C//DTD SVG 1.1//EN"
 "http://www.w3.org/Graphics/SVG/1.1/DTD/svg11.dtd">
<!-- Generated by graphviz version 2.40.1 (20161225.0304)
 -->
<!-- Title: G Pages: 1 -->
<svg width="1294pt" height="284pt"
 viewBox="0.00 0.00 1294.39 283.51" xmlns="http://www.w3.org/2000/svg" xmlns:xlink="http://www.w3.org/1999/xlink">
<g id="graph0" class="graph" transform="scale(1 1) rotate(0) translate(4 279.5097)">
<title>G</title>
<polygon fill="#ffffff" stroke="transparent" points="-4,4 -4,-279.5097 1290.3928,-279.5097 1290.3928,4 -4,4"/>
<!-- A0 -->
<g id="node1" class="node">
<title>A0</title>
<g transform="translate(216.621,-236.5097)" style="fill:none;stroke:black;stroke-width:1px"><circle cx="0" cy="-20" r="7.5" />
                <line x1="0" y1="-12.5" x2="0" y2="5" />
                <line x1="-15" y1="-5" x2="15" y2="-5" />
                <line x1="0" y1="5" x2="-15" y2="17" />
                <line x1="0" y1="5" x2="15" y2="17" /></g>
<text text-anchor="middle" x="216.621" y="-211.5097" font-family="Helvetica,sans-Serif" font-size="10.00" fill="#000000">Usuario</text>
</g>
<!-- A1 -->
<g id="node2" class="node">
<title>A1</title>
<ellipse fill="none" stroke="#000000" cx="65.621" cy="-129.8823" rx="65.7422" ry="18"/>
<text text-anchor="middle" x="65.621" y="-126.8823" font-family="Helvetica,sans-Serif" font-size="10.00" fill="#000000">Ver lista de pizzas</text>
</g>
<!-- A0&#45;&gt;A1 -->
<g id="edge1" class="edge">
<title>A0&#45;&gt;A1</title>
<path fill="none" stroke="#000000" d="M170.0839,-205.7233C143.2208,-186.2205 110.5919,-162.5316 89.0271,-146.8753"/>
</g>
<!-- A2 -->
<g id="node3" class="node">
<title>A2</title>
<ellipse fill="none" stroke="#000000" cx="216.621" cy="-129.8823" rx="66.9063" ry="22.7556"/>
<text text-anchor="middle" x="216.621" y="-132.8823" font-family="Helvetica,sans-Serif" font-size="10.00" fill="#000000">Ver detalles de</text>
<text text-anchor="middle" x="216.621" y="-120.8823" font-family="Helvetica,sans-Serif" font-size="10.00" fill="#000000">pizza</text>
</g>
<!-- A0&#45;&gt;A2 -->
<g id="edge2" class="edge">
<title>A0&#45;&gt;A2</title>
<path fill="none" stroke="#000000" d="M216.621,-203.3097C216.621,-186.5953 216.621,-167.2606 216.621,-152.6283"/>
</g>
<!-- A3 -->
<g id="node4" class="node">
<title>A3</title>
<ellipse fill="none" stroke="#000000" cx="378.621" cy="-129.8823" rx="76.5334" ry="22.7556"/>
<text text-anchor="middle" x="378.621" y="-132.8823" font-family="Helvetica,sans-Serif" font-size="10.00" fill="#000000">Calcular precio de</text>
<text text-anchor="middle" x="378.621" y="-120.8823" font-family="Helvetica,sans-Serif" font-size="10.00" fill="#000000">pizza</text>
</g>
<!-- A0&#45;&gt;A3 -->
<g id="edge3" class="edge">
<title>A0&#45;&gt;A3</title>
<path fill="none" stroke="#000000" d="M263.4781,-207.8009C290.5777,-189.4623 323.9182,-166.9003 347.7359,-150.7826"/>
</g>
<!-- A4 -->
<g id="node5" class="node">
<title>A4</title>
<g transform="translate(853.621,-236.5097)" style="fill:none;stroke:black;stroke-width:1px"><circle cx="0" cy="-20" r="7.5" />
                <line x1="0" y1="-12.5" x2="0" y2="5" />
                <line x1="-15" y1="-5" x2="15" y2="-5" />
                <line x1="0" y1="5" x2="-15" y2="17" />
                <line x1="0" y1="5" x2="15" y2="17" /></g>
<text text-anchor="middle" x="853.621" y="-211.5097" font-family="Helvetica,sans-Serif" font-size="10.00" fill="#000000">Administrador</text>
</g>
<!-- A5 -->
<g id="node6" class="node">
<title>A5</title>
<ellipse fill="none" stroke="#000000" cx="520.621" cy="-129.8823" rx="47.645" ry="18"/>
<text text-anchor="middle" x="520.621" y="-126.8823" font-family="Helvetica,sans-Serif" font-size="10.00" fill="#000000">Crear pizza</text>
</g>
<!-- A4&#45;&gt;A5 -->
<g id="edge4" class="edge">
<title>A4&#45;&gt;A5</title>
<path fill="none" stroke="#000000" d="M793.4431,-221.9138C737.2495,-205.1594 651.2308,-178.6829 577.621,-152.5097 569.5956,-149.6561 561.0196,-146.3763 553.021,-143.2153"/>
</g>
<!-- A7 -->
<g id="node8" class="node">
<title>A7</title>
<ellipse fill="none" stroke="#000000" cx="645.621" cy="-129.8823" rx="58.8719" ry="18"/>
<text text-anchor="middle" x="645.621" y="-126.8823" font-family="Helvetica,sans-Serif" font-size="10.00" fill="#000000">Actualizar pizza</text>
</g>
<!-- A4&#45;&gt;A7 -->
<g id="edge6" class="edge">
<title>A4&#45;&gt;A7</title>
<path fill="none" stroke="#000000" d="M793.4588,-207.8009C754.7049,-187.3755 706.0105,-161.7108 675.3411,-145.5464"/>
</g>
<!-- A8 -->
<g id="node9" class="node">
<title>A8</title>
<ellipse fill="none" stroke="#000000" cx="776.621" cy="-129.8823" rx="54.0041" ry="18"/>
<text text-anchor="middle" x="776.621" y="-126.8823" font-family="Helvetica,sans-Serif" font-size="10.00" fill="#000000">Eliminar pizza</text>
</g>
<!-- A4&#45;&gt;A8 -->
<g id="edge7" class="edge">
<title>A4&#45;&gt;A8</title>
<path fill="none" stroke="#000000" d="M828.1949,-203.3097C815.0533,-184.5995 799.6055,-162.606 789.0659,-147.6005"/>
</g>
<!-- A9 -->
<g id="node10" class="node">
<title>A9</title>
<ellipse fill="none" stroke="#000000" cx="931.621" cy="-129.8823" rx="82.0303" ry="22.7556"/>
<text text-anchor="middle" x="931.621" y="-132.8823" font-family="Helvetica,sans-Serif" font-size="10.00" fill="#000000">Eliminar ingrediente</text>
<text text-anchor="middle" x="931.621" y="-120.8823" font-family="Helvetica,sans-Serif" font-size="10.00" fill="#000000">de pizza</text>
</g>
<!-- A4&#45;&gt;A9 -->
<g id="edge8" class="edge">
<title>A4&#45;&gt;A9</title>
<path fill="none" stroke="#000000" d="M879.3773,-203.3097C891.3584,-186.4706 905.2317,-166.9719 915.6697,-152.3015"/>
</g>
<!-- A10 -->
<g id="node11" class="node">
<title>A10</title>
<ellipse fill="none" stroke="#000000" cx="1095.621" cy="-129.8823" rx="63.0619" ry="18"/>
<text text-anchor="middle" x="1095.621" y="-126.8823" font-family="Helvetica,sans-Serif" font-size="10.00" fill="#000000">Crear ingrediente</text>
</g>
<!-- A4&#45;&gt;A10 -->
<g id="edge9" class="edge">
<title>A4&#45;&gt;A10</title>
<path fill="none" stroke="#000000" d="M913.7521,-212.2699C960.5065,-191.0899 1023.6558,-162.4829 1061.9133,-145.152"/>
</g>
<!-- A11 -->
<g id="node12" class="node">
<title>A11</title>
<ellipse fill="none" stroke="#000000" cx="1231.621" cy="-129.8823" rx="54.5445" ry="22.7556"/>
<text text-anchor="middle" x="1231.621" y="-132.8823" font-family="Helvetica,sans-Serif" font-size="10.00" fill="#000000">Actualizar</text>
<text text-anchor="middle" x="1231.621" y="-120.8823" font-family="Helvetica,sans-Serif" font-size="10.00" fill="#000000">ingrediente</text>
</g>
<!-- A4&#45;&gt;A11 -->
<g id="edge10" class="edge">
<title>A4&#45;&gt;A11</title>
<path fill="none" stroke="#000000" d="M913.8888,-224.1434C977.3721,-207.6471 1080.0777,-180.0764 1167.621,-152.5097 1175.04,-150.1735 1182.8875,-147.5379 1190.4494,-144.9126"/>
</g>
<!-- A6 -->
<g id="node7" class="node">
<title>A6</title>
<ellipse fill="none" stroke="#000000" cx="520.621" cy="-22.6274" rx="85.3357" ry="22.7556"/>
<text text-anchor="middle" x="520.621" y="-25.6274" font-family="Helvetica,sans-Serif" font-size="10.00" fill="#000000">Añadir ingrediente a</text>
<text text-anchor="middle" x="520.621" y="-13.6274" font-family="Helvetica,sans-Serif" font-size="10.00" fill="#000000">pizza</text>
</g>
<!-- A5&#45;&gt;A6 -->
<g id="edge5" class="edge">
<title>A5&#45;&gt;A6</title>
<path fill="none" stroke="#000000" stroke-dasharray="5,2" d="M520.621,-101.4696C520.621,-83.9424 520.621,-61.7628 520.621,-45.396"/>
<polygon fill="#000000" stroke="#000000" points="520.621,-111.6879 516.1211,-101.6879 520.621,-106.6879 520.6211,-101.6879 520.6211,-101.6879 520.6211,-101.6879 520.621,-106.6879 525.1211,-101.688 520.621,-111.6879 520.621,-111.6879"/>
<text text-anchor="middle" x="547.3065" y="-73.2548" font-family="Helvetica,sans-Serif" font-size="10.00" fill="#000000">&lt;&lt;extend&gt;&gt;</text>
</g>
</g>
</svg>
