<?xml version="1.0" encoding="UTF-8" standalone="no"?>
<!DOCTYPE svg PUBLIC "-//W3C//DTD SVG 1.1//EN"
 "http://www.w3.org/Graphics/SVG/1.1/DTD/svg11.dtd">
<!-- Generated by graphviz version 2.40.1 (20161225.0304)
 -->
<!-- Title: G Pages: 1 -->
<svg width="238pt" height="187pt"
 viewBox="0.00 0.00 237.53 187.00" xmlns="http://www.w3.org/2000/svg" xmlns:xlink="http://www.w3.org/1999/xlink">
<g id="graph0" class="graph" transform="scale(1 1) rotate(0) translate(4 183)">
<title>G</title>
<polygon fill="#ffffff" stroke="transparent" points="-4,4 -4,-183 233.526,-183 233.526,4 -4,4"/>
<!-- A0 -->
<g id="node1" class="node">
<title>A0</title>
<ellipse fill="none" stroke="#000000" cx="114.3435" cy="-168" rx="11" ry="11"/>
</g>
<!-- A1 -->
<g id="node2" class="node">
<title>A1</title>
<polygon fill="none" stroke="#000000" points="114.3435,-120 96.3435,-102 114.3435,-84 132.3435,-102 114.3435,-120"/>
</g>
<!-- A0&#45;&gt;A1 -->
<g id="edge1" class="edge">
<title>A0&#45;&gt;A1</title>
<path fill="none" stroke="#000000" d="M114.3435,-156.804C114.3435,-149.5358 114.3435,-139.7135 114.3435,-130.3916"/>
<polygon fill="#000000" stroke="#000000" points="114.3435,-120.2423 118.8436,-130.2423 114.3435,-125.2423 114.3436,-130.2423 114.3436,-130.2423 114.3436,-130.2423 114.3435,-125.2423 109.8436,-130.2424 114.3435,-120.2423 114.3435,-120.2423"/>
</g>
<!-- A2 -->
<g id="node3" class="node">
<title>A2</title>
<path fill="none" stroke="#000000" d="M92.531,-36C92.531,-36 12.156,-36 12.156,-36 6.156,-36 .156,-30 .156,-24 .156,-24 .156,-12 .156,-12 .156,-6 6.156,0 12.156,0 12.156,0 92.531,0 92.531,0 98.531,0 104.531,-6 104.531,-12 104.531,-12 104.531,-24 104.531,-24 104.531,-30 98.531,-36 92.531,-36"/>
<text text-anchor="middle" x="52.3435" y="-15" font-family="Helvetica,sans-Serif" font-size="10.00" fill="#000000">Show Dashboard</text>
</g>
<!-- A1&#45;&gt;A2 -->
<g id="edge2" class="edge">
<title>A1&#45;&gt;A2</title>
<path fill="none" stroke="#000000" d="M106.4912,-91.3613C97.8583,-79.6652 83.661,-60.4302 71.9696,-44.5902"/>
<polygon fill="#000000" stroke="#000000" points="65.7834,-36.209 75.3426,-41.5824 68.7527,-40.2318 71.722,-44.2547 71.722,-44.2547 71.722,-44.2547 68.7527,-40.2318 68.1014,-46.9271 65.7834,-36.209 65.7834,-36.209"/>
<text text-anchor="middle" x="110.408" y="-57" font-family="Helvetica,sans-Serif" font-size="10.00" fill="#000000">[logged in]</text>
</g>
<!-- A3 -->
<g id="node4" class="node">
<title>A3</title>
<path fill="none" stroke="#000000" d="M217.7091,-36C217.7091,-36 134.9779,-36 134.9779,-36 128.9779,-36 122.9779,-30 122.9779,-24 122.9779,-24 122.9779,-12 122.9779,-12 122.9779,-6 128.9779,0 134.9779,0 134.9779,0 217.7091,0 217.7091,0 223.7091,0 229.7091,-6 229.7091,-12 229.7091,-12 229.7091,-24 229.7091,-24 229.7091,-30 223.7091,-36 217.7091,-36"/>
<text text-anchor="middle" x="176.3435" y="-15" font-family="Helvetica,sans-Serif" font-size="10.00" fill="#000000">Show Login Page</text>
</g>
<!-- A1&#45;&gt;A3 -->
<g id="edge3" class="edge">
<title>A1&#45;&gt;A3</title>
<path fill="none" stroke="#000000" d="M122.1958,-91.3613C130.8287,-79.6652 145.026,-60.4302 156.7174,-44.5902"/>
<polygon fill="#000000" stroke="#000000" points="162.9036,-36.209 160.5856,-46.9271 159.9343,-40.2318 156.965,-44.2547 156.965,-44.2547 156.965,-44.2547 159.9343,-40.2318 153.3444,-41.5824 162.9036,-36.209 162.9036,-36.209"/>
<text text-anchor="middle" x="179.746" y="-57" font-family="Helvetica,sans-Serif" font-size="10.00" fill="#000000">[not logged in]</text>
</g>
</g>
</svg>
